<svg id="Layer_1" data-name="Layer 1" xmlns="http://www.w3.org/2000/svg" xmlns:xlink="http://www.w3.org/1999/xlink" viewBox="0 0 210.48 120.31"><defs><style>.cls-1{fill:#fff;}.cls-2,.cls-5{fill:none;}.cls-3{clip-path:url(#clip-path);}.cls-4{clip-path:url(#clip-path-2);}.cls-5{stroke:#fff;stroke-width:4.06px;}</style><clipPath id="clip-path" transform="translate(12.15 25.96)"><path class="cls-1" d="M56.82,35.84H67.88v11H56.82ZM28.13,7.14H67.88v7.73h-32v32H28.13ZM74.49.53h-53v53H35.86V67.85h6.45l.17-46.36h25.4v7.73H50.21V53.65l24.29-.14Z"/></clipPath><clipPath id="clip-path-2" transform="translate(12.15 25.96)"><rect class="cls-2" x="21.51" y="0.53" width="176.82" height="67.33"/></clipPath></defs><title>bistbit-logo-svg</title><path class="cls-1" d="M56.82,35.84H67.88v11H56.82ZM28.13,7.14H67.88v7.73h-32v32H28.13ZM74.49.53h-53v53H35.86V67.85h6.45l.17-46.36h25.4v7.73H50.21V53.65l24.29-.14Z" transform="translate(12.15 25.96)"/><g class="cls-3"><rect class="cls-1" x="5.47" y="-8.35" width="85.07" height="85.07" transform="translate(2.03 69.92) rotate(-45)"/></g><g class="cls-4"><path class="cls-1" d="M196.8,20.67a12,12,0,0,0-1.66-1.31,12.23,12.23,0,0,0-2.1-1.09l-2,3.53L193,22.94a15.55,15.55,0,0,1,1.75,1.17Zm-6.43-4.86c.12.51.27.77.43.77a12.56,12.56,0,0,0,1.61-.11,13,13,0,0,0,1.53-.29,7.39,7.39,0,0,0,1.26-.45,2.83,2.83,0,0,0,.83-.54,4.9,4.9,0,0,0,.67-.93c.27-.45.53-.92.77-1.42a13.55,13.55,0,0,0,.62-1.46,3.7,3.7,0,0,0,.24-1.11,18.78,18.78,0,0,0-.44-3.89,18.52,18.52,0,0,0-1.25-3.79L193,5.51a12.5,12.5,0,0,1,.54,1.21c.17.44.34.89.49,1.36s.3.92.43,1.39.24.92.33,1.33a5,5,0,0,1-1,.33,7.48,7.48,0,0,1-1.11.17c-.36,0-.67,0-.94,0h-.86c-.16,0-.31.26-.43.77a8.18,8.18,0,0,0-.18,1.84,8.21,8.21,0,0,0,.18,1.85m-.89,4.86a11.43,11.43,0,0,0-1.66-1.31,12.13,12.13,0,0,0-2.09-1.09l-1.2,2.09A10.29,10.29,0,0,0,183,19.21a10.9,10.9,0,0,0-1.87-.94l-2,3.53L181,22.94a16.75,16.75,0,0,1,1.76,1.17L184.07,22l1.76,1a11,11,0,0,1,1.56,1.08Zm1.32-4.09V11.35h-1a7.66,7.66,0,0,1-1-.06,2.55,2.55,0,0,1-.86-.26,1.88,1.88,0,0,1-.65-.57,2.06,2.06,0,0,1-.32-1l-.46-4.61-4,2,.18,2c.06.65.14,1.3.22,2a5,5,0,0,1-1.06.32c-.38.07-.75.12-1.09.15l-.93.06-.55,0H179c-.16,0-.3.26-.43.77a8.18,8.18,0,0,0-.18,1.84,8.21,8.21,0,0,0,.18,1.85c.13.51.27.77.43.77a12.72,12.72,0,0,0,1.62-.11,12.83,12.83,0,0,0,1.52-.29,7.39,7.39,0,0,0,1.26-.45,2.7,2.7,0,0,0,.83-.54,1,1,0,0,0,.17-.26c.07-.13.18-.31.32-.54a3.31,3.31,0,0,0,1,1.17,4.72,4.72,0,0,0,1.28.66,6,6,0,0,0,1.35.3q.67.06,1.26.06Zm-11.84,0V11.35a8.06,8.06,0,0,1-1-.06,3,3,0,0,1-.91-.25,1.76,1.76,0,0,1-.69-.55,2,2,0,0,1-.34-1l-.46-4.76-4,2,.43,4.39a2.83,2.83,0,0,1-.76.17c-.29,0-.54,0-.74,0a3.85,3.85,0,0,1-.68-.08,2.22,2.22,0,0,1-.71-.26V6.89H165.9l-.31,3.38c-.15.72-.81,1.08-2,1.08s-1.69-.51-1.69-1.54A9.7,9.7,0,0,1,162,8.64c.06-.47.13-1.05.22-1.75L159,6.74l-.71,3.07a1.78,1.78,0,0,1-.72,1.12,3.41,3.41,0,0,1-2,.42H155c-.16,0-.31.26-.43.77a8.13,8.13,0,0,0-.19,1.84,8.16,8.16,0,0,0,.19,1.85c.12.51.27.77.43.77h.46a6.65,6.65,0,0,0,2.28-.37,3.8,3.8,0,0,0,1.75-1.51,3.07,3.07,0,0,0,1.64,1.51,7,7,0,0,0,2.33.37,5.45,5.45,0,0,0,1.92-.33,3.72,3.72,0,0,0,1.58-1.18,3.13,3.13,0,0,0,1.55,1.18,5.62,5.62,0,0,0,1.86.33,5.23,5.23,0,0,0,1.77-.31,3.63,3.63,0,0,0,1.31-.77,1.49,1.49,0,0,0,.18-.25,4,4,0,0,0,.31-.58,3.3,3.3,0,0,0,1,1,4.91,4.91,0,0,0,1.28.57,7.17,7.17,0,0,0,1.38.27q.7.06,1.35.06M146.22,2.92a12.12,12.12,0,0,0-1.66-1.3A11.8,11.8,0,0,0,142.47.53l-1.2,2.09a11.75,11.75,0,0,0-1.54-1.12,12.77,12.77,0,0,0-1.88-1l-2,3.53,1.94,1.14a15.55,15.55,0,0,1,1.75,1.17l1.3-2.09,1.76,1a13.08,13.08,0,0,1,1.56,1ZM155,16.58V11.35a7.93,7.93,0,0,1-1-.06,3,3,0,0,1-.91-.25,1.69,1.69,0,0,1-.69-.55,1.88,1.88,0,0,1-.34-1l-.46-4.76-4,2,.4,4a13.12,13.12,0,0,1-1.8.39c-.71.11-1.45.21-2.24.29s-1.6.15-2.43.2-1.63.08-2.38.08a17.21,17.21,0,0,1-4-.4q-1.57-.4-1.83-1a3.84,3.84,0,0,1-.06-.73,16.79,16.79,0,0,1,.14-1.91c.09-.76.22-1.52.38-2.28l-2.92-.76A26.42,26.42,0,0,0,130,8a18.58,18.58,0,0,0-.24,2.86,13.7,13.7,0,0,0,.18,2.17,3.3,3.3,0,0,0,.89,1.83,6.54,6.54,0,0,0,2.82,1.46,19.33,19.33,0,0,0,5,.53,36.16,36.16,0,0,0,3.63-.18,31.42,31.42,0,0,0,3.23-.48,19.62,19.62,0,0,0,2.46-.64,3.14,3.14,0,0,0,1.29-.69,4.79,4.79,0,0,0,.4-.62,3.66,3.66,0,0,0,1,1.23,4.41,4.41,0,0,0,1.3.69,6.19,6.19,0,0,0,1.39.31,11.85,11.85,0,0,0,1.27.08Zm-30.44,4.09a10.91,10.91,0,0,0-1.66-1.31,12.13,12.13,0,0,0-2.09-1.09l-2,3.53,1.94,1.14a16.52,16.52,0,0,1,1.75,1.17Zm-6.43-4.86c.13.51.27.77.43.77a12.6,12.6,0,0,0,1.62-.11,12.83,12.83,0,0,0,1.52-.29,7.39,7.39,0,0,0,1.26-.45,2.7,2.7,0,0,0,.83-.54,4.86,4.86,0,0,0,.68-.93c.26-.45.52-.92.77-1.42a13.41,13.41,0,0,0,.61-1.46,3.48,3.48,0,0,0,.25-1.11,18.16,18.16,0,0,0-.45-3.89,19.13,19.13,0,0,0-1.24-3.79L120.7,5.51c.18.37.36.77.53,1.21s.34.89.5,1.36.29.92.43,1.39.24.92.32,1.33a5,5,0,0,1-1,.33,7.48,7.48,0,0,1-1.11.17c-.36,0-.67,0-.93,0h-.87c-.16,0-.3.26-.43.77a8.18,8.18,0,0,0-.18,1.84,8.21,8.21,0,0,0,.18,1.85m-.89,4.86a10.91,10.91,0,0,0-1.66-1.31,11.77,11.77,0,0,0-2.09-1.09l-1.2,2.09a9.8,9.8,0,0,0-1.54-1.15,10.55,10.55,0,0,0-1.87-.94l-2,3.53,1.94,1.14a16.52,16.52,0,0,1,1.75,1.17L111.81,22l1.77,1a11.44,11.44,0,0,1,1.55,1.08Zm1.32-4.09V11.35h-1a7.77,7.77,0,0,1-1-.06,2.62,2.62,0,0,1-.86-.26,2,2,0,0,1-.65-.57,2.06,2.06,0,0,1-.32-1l-.46-4.61-4,2c.06.66.13,1.31.19,2s.13,1.3.21,2a5,5,0,0,1-1.06.32c-.38.07-.74.12-1.09.15l-.92.06-.56,0h-.3c-.17,0-.31.26-.43.77a7.6,7.6,0,0,0-.19,1.84,7.63,7.63,0,0,0,.19,1.85c.12.51.26.77.43.77a12.56,12.56,0,0,0,1.61-.11,12.83,12.83,0,0,0,1.52-.29,7.39,7.39,0,0,0,1.26-.45,2.7,2.7,0,0,0,.83-.54,1,1,0,0,0,.17-.26q.11-.19.33-.54a3.21,3.21,0,0,0,1,1.17,4.52,4.52,0,0,0,1.27.66,6,6,0,0,0,1.35.3q.67.06,1.26.06ZM97.94,2.92a11.54,11.54,0,0,0-1.66-1.3A11.15,11.15,0,0,0,94.19.53L93,2.62A11.63,11.63,0,0,0,91.46,1.5a12.77,12.77,0,0,0-1.88-1l-2,3.53L89.49,5.2a15.55,15.55,0,0,1,1.75,1.17l1.29-2.09,1.77,1a12.87,12.87,0,0,1,1.55,1Zm8.77,13.66V11.35a8.22,8.22,0,0,1-1-.06,2.85,2.85,0,0,1-.9-.25,1.79,1.79,0,0,1-.7-.55,2,2,0,0,1-.33-1l-.47-4.76-4,2,.4,4a13.12,13.12,0,0,1-1.8.39c-.71.11-1.46.21-2.25.29s-1.6.15-2.42.2-1.63.08-2.39.08a17.06,17.06,0,0,1-4-.4q-1.59-.4-1.83-1A3.84,3.84,0,0,1,85,9.54a14.75,14.75,0,0,1,.14-1.91c.09-.76.22-1.52.38-2.28l-2.92-.76A24.89,24.89,0,0,0,81.74,8a18.66,18.66,0,0,0-.25,2.86,13.75,13.75,0,0,0,.19,2.17,3.3,3.3,0,0,0,.89,1.83,6.43,6.43,0,0,0,2.81,1.46,19.42,19.42,0,0,0,5,.53A36.16,36.16,0,0,0,94,16.7a31.84,31.84,0,0,0,3.23-.48,19.62,19.62,0,0,0,2.46-.64,3.29,3.29,0,0,0,1.29-.69,6.32,6.32,0,0,0,.4-.62,3.52,3.52,0,0,0,1,1.23,4.46,4.46,0,0,0,1.31.69,6.23,6.23,0,0,0,1.38.31,12,12,0,0,0,1.28.08Z" transform="translate(12.15 25.96)"/><path class="cls-1" d="M197.14,52.37a6.28,6.28,0,0,0,1.19-.23V49.06a4.79,4.79,0,0,1-1.26.24,1.43,1.43,0,0,1-1.13-.39,1.93,1.93,0,0,1-.35-1.32V43.48h2.71V40h-2.74V36l-3.29.37-.6,3.64h-2.23v3.5h2v5.1c0,2.57,1.44,3.86,4.34,3.86a13.26,13.26,0,0,0,1.4-.07m-21-.17h4.19V40h-4.19ZM180,37.93a2.43,2.43,0,0,0,.5-1.68,2.3,2.3,0,0,0-.53-1.68,3.15,3.15,0,0,0-3.5,0,2.39,2.39,0,0,0-.5,1.68,2.43,2.43,0,0,0,.5,1.7,2.38,2.38,0,0,0,1.77.53,2.29,2.29,0,0,0,1.76-.55m-22.12,4.41V38.48l1-.11c.33,0,.68,0,1,0a3.4,3.4,0,0,1,2,.45,1.76,1.76,0,0,1,.6,1.51,2,2,0,0,1-.57,1.6,3.38,3.38,0,0,1-2,.45Zm.75,7-.75-.06v-4h2.23a3.93,3.93,0,0,1,2.22.47,1.82,1.82,0,0,1,.65,1.58c0,1.39-1,2.08-2.87,2.08-.68,0-1.18,0-1.48,0m6.88,2a4.15,4.15,0,0,0-1.45-7.62v-.09A3.32,3.32,0,0,0,166.82,40a4.1,4.1,0,0,0-1.71-3.64c-1.13-.77-3-1.16-5.44-1.16-.91,0-1.82,0-2.75.09s-1.94.15-3,.27v16.5a52.86,52.86,0,0,0,6.09.36,10.29,10.29,0,0,0,5.58-1.19m-21.61,1.12a6.28,6.28,0,0,0,1.19-.23V49.06a4.78,4.78,0,0,1-1.27.24,1.45,1.45,0,0,1-1.13-.39,2,2,0,0,1-.34-1.32V43.48h2.71V40h-2.74V36l-3.29.37-.6,3.64h-2.24v3.5h2v5.1q0,3.86,4.35,3.86a13.26,13.26,0,0,0,1.4-.07m-16.21-4a3.8,3.8,0,0,0-.33-1.69,3,3,0,0,0-.91-1.08,3.87,3.87,0,0,0-1.34-.64,13.09,13.09,0,0,0-1.61-.33,5.29,5.29,0,0,1-1.51-.33.72.72,0,0,1-.45-.7c0-.6.57-.9,1.72-.9a9.85,9.85,0,0,1,1.62.14c.61.09,1.33.22,2.18.4l.09-3.07c-.91-.16-1.72-.28-2.45-.35s-1.39-.11-2-.11a6,6,0,0,0-3.78,1.06,3.56,3.56,0,0,0-1.34,3,4.08,4.08,0,0,0,.43,2.06A3.09,3.09,0,0,0,119.12,47a4.23,4.23,0,0,0,1.42.51c.51.09,1,.17,1.46.23a3.64,3.64,0,0,1,1.33.31.74.74,0,0,1,.39.68.68.68,0,0,1-.39.65,3.16,3.16,0,0,1-1.3.2,18.77,18.77,0,0,1-4.5-.61v2.93a22,22,0,0,0,2.39.42,18.87,18.87,0,0,0,2.26.15q5.55,0,5.55-4m-24,3.8H108V40h-4.19Zm3.88-14.27a2.43,2.43,0,0,0,.5-1.68,2.3,2.3,0,0,0-.53-1.68,2.4,2.4,0,0,0-1.74-.53,1.89,1.89,0,0,0-2.26,2.21,2.43,2.43,0,0,0,.5,1.7,2.37,2.37,0,0,0,1.76.53,2.3,2.3,0,0,0,1.77-.55M85.54,42.34V38.48l1-.11c.33,0,.67,0,1,0a3.42,3.42,0,0,1,2,.45,1.76,1.76,0,0,1,.6,1.51,2,2,0,0,1-.57,1.6,3.4,3.4,0,0,1-2,.45Zm.75,7-.75-.06v-4h2.23a3.92,3.92,0,0,1,2.21.47,1.8,1.8,0,0,1,.65,1.58c0,1.39-.95,2.08-2.86,2.08-.69,0-1.18,0-1.48,0m6.88,2A4.09,4.09,0,0,0,95,47.62,4,4,0,0,0,94.12,45a4.13,4.13,0,0,0-2.4-1.35v-.09A3.31,3.31,0,0,0,94.43,40a4.11,4.11,0,0,0-1.7-3.64c-1.14-.77-3-1.16-5.45-1.16-.9,0-1.82,0-2.74.09s-1.94.15-3.05.27v16.5a53,53,0,0,0,6.1.36,10.29,10.29,0,0,0,5.58-1.19" transform="translate(12.15 25.96)"/><line class="cls-5" x1="93.64" y1="55.04" x2="210.48" y2="55.04"/><path class="cls-1" d="M103.26,62.66a2.11,2.11,0,0,1,.23,1.08h-2c.06-.93.43-1.4,1.12-1.4a.75.75,0,0,1,.68.32m0,3.4a4.19,4.19,0,0,0,.62-.18l0-.52a3.28,3.28,0,0,1-1.19.24,1.13,1.13,0,0,1-.9-.33,1.74,1.74,0,0,1-.34-1h2.59a2.29,2.29,0,0,1,0-.25,2.54,2.54,0,0,0,0-.31q0-1.83-1.5-1.83a1.6,1.6,0,0,0-1.32.55,2.62,2.62,0,0,0-.45,1.65,2.32,2.32,0,0,0,.46,1.56,1.72,1.72,0,0,0,1.36.53,4,4,0,0,0,.67-.06m-6.1-.89A2.14,2.14,0,0,1,96.94,64a2,2,0,0,1,.32-1.25,1.16,1.16,0,0,1,1-.38l.44,0,.43.06v2.24A.92.92,0,0,1,99,65a1,1,0,0,1-.24.29,1,1,0,0,1-.34.18,1.39,1.39,0,0,1-.4.06.93.93,0,0,1-.82-.38m1.4,2.47a1.49,1.49,0,0,0,1-1,3.24,3.24,0,0,0,.14-1V62a5.49,5.49,0,0,0-.8-.17,5.78,5.78,0,0,0-.71,0,1.91,1.91,0,0,0-1.43.55A2.29,2.29,0,0,0,96.27,64a2.43,2.43,0,0,0,.41,1.55,1.46,1.46,0,0,0,1.2.5,1.41,1.41,0,0,0,1.2-.55h0v.23a1.56,1.56,0,0,1-.35,1.16,1.41,1.41,0,0,1-1,.33,4.22,4.22,0,0,1-1.15-.17l0,.51a5,5,0,0,0,.61.13,3.67,3.67,0,0,0,.66,0,2.59,2.59,0,0,0,.76-.1m-6.68-1.59h.64V62.82a5.14,5.14,0,0,1,.74-.33,1.93,1.93,0,0,1,.63-.12.58.58,0,0,1,.47.18,1,1,0,0,1,.14.59v2.91h.65V62.94c0-.75-.35-1.13-1-1.13a2.44,2.44,0,0,0-.71.13,4.74,4.74,0,0,0-.91.43h0l0-.47h-.54Zm-3.72-1.11a.69.69,0,0,1,.23-.57,1.7,1.7,0,0,1,.82-.24l.74-.07v1.06l-.57.32a1.41,1.41,0,0,1-.58.14.56.56,0,0,1-.64-.64m1.12,1a4,4,0,0,0,.67-.4h0l.07.51h.53V63.18a1.28,1.28,0,0,0-.36-1,1.64,1.64,0,0,0-1.13-.32l-.63,0-.7.1.06.51.61-.1.53,0a1.15,1.15,0,0,1,.77.2,1,1,0,0,1,.21.74v.34l-.92.07a2,2,0,0,0-1.16.38,1.33,1.33,0,0,0-.09,1.71,1,1,0,0,0,.79.29,1.78,1.78,0,0,0,.71-.15m-6.07.11h.64V62.82a5.76,5.76,0,0,1,.75-.33,1.88,1.88,0,0,1,.62-.12.57.57,0,0,1,.47.18.92.92,0,0,1,.14.59v2.91h.65V62.94c0-.75-.34-1.13-1-1.13a2.13,2.13,0,0,0-.71.14,6.52,6.52,0,0,0-.9.41V59.84h-.64Zm-1.49,0a1.93,1.93,0,0,0,.41-.09v-.53l-.43.07-.4,0a1.17,1.17,0,0,1-1-.38,2.61,2.61,0,0,1,0-2.43,1.19,1.19,0,0,1,1-.38,4,4,0,0,1,.82.09v-.54a3.57,3.57,0,0,0-.88-.12q-1.89,0-1.89,2.16t1.89,2.16l.47,0m-6.86,0h.69l1-1.44.24-.34h0l.25.34,1,1.44h.68V66l-1.48-2,1.4-2V61.9H78l-.91,1.32-.21.33h0l-.23-.33-.91-1.32H75V62l1.4,1.95L74.91,66Zm-4.13,0h3.46V65.5H71.43v-2H74v-.56H71.43v-2h2.75v-.55h-3.4Zm-5.4-.83A2.16,2.16,0,0,1,65.1,64a2.08,2.08,0,0,1,.28-1.24,1.21,1.21,0,0,1,1.76,0A2.17,2.17,0,0,1,67.41,64a2.21,2.21,0,0,1-.27,1.25,1.21,1.21,0,0,1-1.76,0m2.22.35a2.4,2.4,0,0,0,.46-1.6,2.43,2.43,0,0,0-.46-1.61,1.66,1.66,0,0,0-1.35-.55,1.69,1.69,0,0,0-1.35.55A2.43,2.43,0,0,0,64.44,64a2.4,2.4,0,0,0,.46,1.6,1.66,1.66,0,0,0,1.35.55,1.63,1.63,0,0,0,1.35-.55M63.72,66v-.51l-.25,0-.24,0q-.69,0-.69-.75V62.46h1.17V61.9H62.54V60.78l-.51.08-.09,1h-.86v.56h.83V65A1,1,0,0,0,63,66.1a3.56,3.56,0,0,0,.68-.08M58,65.61a2.37,2.37,0,0,1-.41-.06V63.26a.86.86,0,0,1,.09-.39.8.8,0,0,1,.23-.29,1.06,1.06,0,0,1,.35-.18,1.29,1.29,0,0,1,.4-.06.92.92,0,0,1,.82.37A2.27,2.27,0,0,1,59.74,64a2,2,0,0,1-.32,1.29,1.17,1.17,0,0,1-1,.39l-.45,0m-1.06,2.13h.65V66.06l.4,0,.45,0a1.82,1.82,0,0,0,1.47-.6,2.51,2.51,0,0,0,.5-1.62A2.55,2.55,0,0,0,60,62.33a1.42,1.42,0,0,0-1.18-.52,1.61,1.61,0,0,0-.71.15,1.31,1.31,0,0,0-.5.4h0l0-.46h-.58Zm-3.14,0L56.07,62V61.9h-.66l-1.1,2.9-.17.54h0L54,64.8l-1.08-2.9h-.68V62L53.79,66l-.59,1.54v.06Zm-4.2-1.69h.65V62.92a3.55,3.55,0,0,1,.62-.29,2.64,2.64,0,0,1,.67-.17h.24v-.63h-.19a2.77,2.77,0,0,0-.68.24l-.69.37h0l0-.54H49.6Zm-1.61,0a5.06,5.06,0,0,0,.53-.1v-.54l-.25,0-.3,0-.3,0h-.24A1.68,1.68,0,0,1,46,65a3.88,3.88,0,0,1,0-3.59,1.78,1.78,0,0,1,1.46-.56,6.85,6.85,0,0,1,1,.1V60.4c-.2,0-.39-.07-.59-.09l-.54,0a2.37,2.37,0,0,0-1.88.7,3.38,3.38,0,0,0-.61,2.22,3.34,3.34,0,0,0,.61,2.2,2.38,2.38,0,0,0,1.89.71,4.08,4.08,0,0,0,.59,0" transform="translate(12.15 25.96)"/></g></svg>